<?xml version="1.0" encoding="UTF-8" standalone="no"?>
<!DOCTYPE svg PUBLIC "-//W3C//DTD SVG 1.1//EN" "http://www.w3.org/Graphics/SVG/1.1/DTD/svg11.dtd">
<svg width="100%" height="100%" viewBox="0 0 800 500" version="1.1" xmlns="http://www.w3.org/2000/svg" xmlns:xlink="http://www.w3.org/1999/xlink" xml:space="preserve" xmlns:serif="http://www.serif.com/" style="fill-rule:evenodd;clip-rule:evenodd;stroke-linejoin:round;stroke-miterlimit:2;">
    <g transform="matrix(1,0,0,1,5.68434e-14,-32.4649)">
        <g transform="matrix(0.8,0,0,0.8,80,76.2873)">
            <g transform="matrix(0.695341,0,0,0.715867,131.541,52.7904)">
                <ellipse cx="386.082" cy="191.237" rx="143.814" ry="139.691" style="fill:rgb(64,134,249);"/>
            </g>
            <g id="vs-code" transform="matrix(2.5,0,0,2.5,400,189.691)">
                <g transform="matrix(1,0,0,1,-24,-24)">
                    <path d="M44,11.11L44,36.89C44,38.16 43.21,39.29 42.02,39.71L33.2,43.85L34,33L34,15L33.2,4.15L42.02,8.29C43.21,8.71 44,9.84 44,11.11Z" style="fill:white;fill-rule:nonzero;"/>
                    <path d="M9,33.896L34,15L34,5.353C34,4.155 32.518,3.595 31.725,4.493L4.658,29.239C3.758,30.069 3.809,31.506 4.765,32.271C4.765,32.271 6.089,33.503 6.568,33.845C7.304,34.37 8.271,34.43 9,33.896Z" style="fill:white;fill-rule:nonzero;"/>
                    <g transform="matrix(1,0,0,1,0,-0.521773)">
                        <path d="M9,14.104L34,33L34,42.647C34,43.845 32.518,44.405 31.725,43.507L4.658,18.761C3.758,17.931 3.809,16.494 4.765,15.729C4.765,15.729 6.089,14.497 6.568,14.155C7.304,13.63 8.271,13.57 9,14.104Z" style="fill:white;fill-rule:nonzero;stroke:white;stroke-width:1px;"/>
                    </g>
                </g>
            </g>
        </g>
        <g transform="matrix(1,0,0,1,-99.9825,42.5258)">
            <g transform="matrix(66.6667,0,0,66.6667,281.616,373.297)">
                <path d="M0.081,-0.716L0.229,-0.716L0.438,-0.171L0.444,-0.171L0.654,-0.716L0.802,-0.716L0.802,0L0.694,0L0.694,-0.405L0.7,-0.532L0.694,-0.532L0.485,0L0.398,0L0.189,-0.532L0.183,-0.532L0.189,-0.405L0.189,0L0.081,0L0.081,-0.716Z" style="fill:rgb(11,48,67);fill-rule:nonzero;"/>
            </g>
            <g transform="matrix(66.6667,0,0,66.6667,339.482,373.297)">
                <path d="M0.223,0.016C0.186,0.016 0.154,0.009 0.125,-0.006C0.096,-0.02 0.074,-0.04 0.058,-0.066C0.042,-0.092 0.034,-0.122 0.034,-0.155C0.034,-0.19 0.043,-0.221 0.062,-0.247C0.081,-0.272 0.106,-0.292 0.138,-0.306C0.17,-0.319 0.206,-0.326 0.245,-0.326C0.275,-0.326 0.302,-0.323 0.327,-0.318C0.351,-0.312 0.37,-0.305 0.385,-0.298L0.385,-0.325C0.385,-0.358 0.373,-0.384 0.349,-0.405C0.325,-0.425 0.294,-0.435 0.256,-0.435C0.23,-0.435 0.205,-0.429 0.182,-0.418C0.159,-0.406 0.14,-0.39 0.126,-0.37L0.052,-0.427C0.074,-0.458 0.103,-0.483 0.14,-0.5C0.176,-0.517 0.216,-0.526 0.259,-0.526C0.332,-0.526 0.389,-0.508 0.43,-0.471C0.47,-0.435 0.49,-0.384 0.49,-0.319L0.49,0L0.385,0L0.385,-0.063L0.379,-0.063C0.364,-0.04 0.343,-0.021 0.316,-0.007C0.289,0.008 0.258,0.016 0.223,0.016ZM0.242,-0.072C0.269,-0.072 0.293,-0.079 0.315,-0.092C0.337,-0.105 0.354,-0.122 0.367,-0.144C0.379,-0.166 0.385,-0.19 0.385,-0.215C0.369,-0.224 0.351,-0.232 0.33,-0.237C0.309,-0.242 0.288,-0.245 0.265,-0.245C0.223,-0.245 0.192,-0.237 0.172,-0.22C0.153,-0.203 0.143,-0.181 0.143,-0.154C0.143,-0.13 0.152,-0.11 0.17,-0.095C0.188,-0.08 0.212,-0.072 0.242,-0.072Z" style="fill:rgb(11,48,67);fill-rule:nonzero;"/>
            </g>
            <g transform="matrix(66.6667,0,0,66.6667,375.216,373.297)">
                <path d="M0.272,0.008C0.249,0.008 0.228,0.004 0.209,-0.003C0.189,-0.01 0.173,-0.019 0.16,-0.032C0.131,-0.059 0.117,-0.098 0.117,-0.148L0.117,-0.416L0.028,-0.416L0.028,-0.51L0.117,-0.51L0.117,-0.654L0.225,-0.654L0.225,-0.51L0.35,-0.51L0.35,-0.416L0.225,-0.416L0.225,-0.171C0.225,-0.143 0.23,-0.123 0.241,-0.112C0.252,-0.099 0.27,-0.093 0.293,-0.093C0.305,-0.093 0.315,-0.095 0.324,-0.098C0.333,-0.101 0.342,-0.105 0.353,-0.112L0.353,-0.007C0.33,0.003 0.303,0.008 0.272,0.008Z" style="fill:rgb(11,48,67);fill-rule:nonzero;"/>
            </g>
            <g transform="matrix(66.6667,0,0,66.6667,400.016,373.297)">
                <path d="M0.296,0.016C0.247,0.016 0.202,0.004 0.163,-0.019C0.123,-0.042 0.092,-0.075 0.07,-0.116C0.047,-0.157 0.036,-0.203 0.036,-0.254C0.036,-0.303 0.047,-0.348 0.069,-0.39C0.09,-0.431 0.12,-0.464 0.159,-0.489C0.198,-0.514 0.241,-0.526 0.29,-0.526C0.341,-0.526 0.386,-0.515 0.423,-0.493C0.46,-0.47 0.489,-0.439 0.508,-0.4C0.528,-0.361 0.538,-0.316 0.538,-0.266C0.538,-0.253 0.537,-0.241 0.536,-0.232L0.142,-0.232C0.147,-0.183 0.164,-0.146 0.194,-0.119C0.224,-0.093 0.259,-0.08 0.299,-0.08C0.332,-0.08 0.36,-0.087 0.383,-0.102C0.406,-0.117 0.425,-0.137 0.439,-0.162L0.528,-0.119C0.505,-0.077 0.474,-0.044 0.435,-0.02C0.396,0.004 0.35,0.016 0.296,0.016ZM0.431,-0.313C0.43,-0.332 0.424,-0.35 0.413,-0.369C0.402,-0.388 0.387,-0.403 0.367,-0.416C0.346,-0.428 0.321,-0.434 0.291,-0.434C0.255,-0.434 0.225,-0.423 0.2,-0.401C0.174,-0.379 0.157,-0.35 0.148,-0.313L0.431,-0.313Z" style="fill:rgb(11,48,67);fill-rule:nonzero;"/>
            </g>
            <g transform="matrix(66.6667,0,0,66.6667,438.349,373.297)">
                <path d="M0.063,-0.51L0.165,-0.51L0.165,-0.435L0.171,-0.435C0.182,-0.461 0.202,-0.483 0.23,-0.5C0.257,-0.517 0.287,-0.525 0.319,-0.525C0.342,-0.525 0.363,-0.522 0.381,-0.515L0.381,-0.403C0.354,-0.415 0.327,-0.421 0.302,-0.421C0.264,-0.421 0.233,-0.406 0.208,-0.377C0.183,-0.348 0.171,-0.312 0.171,-0.27L0.171,0L0.063,0L0.063,-0.51Z" style="fill:rgb(11,48,67);fill-rule:nonzero;"/>
            </g>
            <g transform="matrix(66.6667,0,0,66.6667,465.082,373.297)">
                <path d="M0.125,-0.585C0.105,-0.585 0.088,-0.592 0.074,-0.607C0.059,-0.621 0.052,-0.638 0.052,-0.658C0.052,-0.678 0.059,-0.695 0.074,-0.709C0.088,-0.723 0.105,-0.73 0.125,-0.73C0.145,-0.73 0.162,-0.723 0.177,-0.709C0.191,-0.695 0.198,-0.678 0.198,-0.658C0.198,-0.638 0.191,-0.621 0.177,-0.607C0.162,-0.592 0.145,-0.585 0.125,-0.585ZM0.071,-0.51L0.179,-0.51L0.179,0L0.071,0L0.071,-0.51Z" style="fill:rgb(11,48,67);fill-rule:nonzero;"/>
            </g>
            <g transform="matrix(66.6667,0,0,66.6667,481.416,373.297)">
                <path d="M0.223,0.016C0.186,0.016 0.154,0.009 0.125,-0.006C0.096,-0.02 0.074,-0.04 0.058,-0.066C0.042,-0.092 0.034,-0.122 0.034,-0.155C0.034,-0.19 0.043,-0.221 0.062,-0.247C0.081,-0.272 0.106,-0.292 0.138,-0.306C0.17,-0.319 0.206,-0.326 0.245,-0.326C0.275,-0.326 0.302,-0.323 0.327,-0.318C0.351,-0.312 0.37,-0.305 0.385,-0.298L0.385,-0.325C0.385,-0.358 0.373,-0.384 0.349,-0.405C0.325,-0.425 0.294,-0.435 0.256,-0.435C0.23,-0.435 0.205,-0.429 0.182,-0.418C0.159,-0.406 0.14,-0.39 0.126,-0.37L0.052,-0.427C0.074,-0.458 0.103,-0.483 0.14,-0.5C0.176,-0.517 0.216,-0.526 0.259,-0.526C0.332,-0.526 0.389,-0.508 0.43,-0.471C0.47,-0.435 0.49,-0.384 0.49,-0.319L0.49,0L0.385,0L0.385,-0.063L0.379,-0.063C0.364,-0.04 0.343,-0.021 0.316,-0.007C0.289,0.008 0.258,0.016 0.223,0.016ZM0.242,-0.072C0.269,-0.072 0.293,-0.079 0.315,-0.092C0.337,-0.105 0.354,-0.122 0.367,-0.144C0.379,-0.166 0.385,-0.19 0.385,-0.215C0.369,-0.224 0.351,-0.232 0.33,-0.237C0.309,-0.242 0.288,-0.245 0.265,-0.245C0.223,-0.245 0.192,-0.237 0.172,-0.22C0.153,-0.203 0.143,-0.181 0.143,-0.154C0.143,-0.13 0.152,-0.11 0.17,-0.095C0.188,-0.08 0.212,-0.072 0.242,-0.072Z" style="fill:rgb(11,48,67);fill-rule:nonzero;"/>
            </g>
            <g transform="matrix(66.6667,0,0,66.6667,517.816,373.297)">
                <rect x="0.063" y="-0.716" width="0.108" height="0.716" style="fill:rgb(11,48,67);fill-rule:nonzero;"/>
            </g>
            <g transform="matrix(66.6667,0,0,66.6667,547.682,373.297)">
                <path d="M0.418,0.016C0.349,0.016 0.285,0 0.229,-0.033C0.172,-0.066 0.127,-0.111 0.094,-0.168C0.061,-0.225 0.045,-0.289 0.045,-0.358C0.045,-0.427 0.061,-0.491 0.094,-0.548C0.127,-0.605 0.172,-0.65 0.229,-0.683C0.285,-0.716 0.349,-0.732 0.418,-0.732C0.525,-0.732 0.614,-0.693 0.683,-0.615L0.606,-0.54C0.581,-0.569 0.554,-0.591 0.524,-0.606C0.493,-0.621 0.458,-0.628 0.419,-0.628C0.37,-0.628 0.326,-0.617 0.286,-0.595C0.246,-0.572 0.214,-0.541 0.191,-0.5C0.168,-0.459 0.156,-0.411 0.156,-0.358C0.156,-0.305 0.168,-0.258 0.191,-0.217C0.214,-0.175 0.246,-0.144 0.286,-0.122C0.326,-0.099 0.37,-0.088 0.419,-0.088C0.5,-0.088 0.569,-0.122 0.624,-0.189L0.703,-0.113C0.668,-0.072 0.627,-0.041 0.578,-0.018C0.529,0.005 0.476,0.016 0.418,0.016Z" style="fill:rgb(11,48,67);fill-rule:nonzero;"/>
            </g>
            <g transform="matrix(66.6667,0,0,66.6667,596.016,373.297)">
                <path d="M0.303,0.016C0.252,0.016 0.206,0.004 0.165,-0.02C0.124,-0.043 0.093,-0.076 0.07,-0.117C0.047,-0.158 0.036,-0.204 0.036,-0.255C0.036,-0.306 0.047,-0.352 0.07,-0.393C0.093,-0.434 0.124,-0.467 0.165,-0.491C0.206,-0.514 0.252,-0.526 0.303,-0.526C0.354,-0.526 0.399,-0.514 0.44,-0.49C0.481,-0.466 0.512,-0.433 0.535,-0.392C0.558,-0.351 0.569,-0.305 0.569,-0.255C0.569,-0.204 0.558,-0.158 0.535,-0.117C0.512,-0.076 0.481,-0.043 0.441,-0.02C0.4,0.004 0.354,0.016 0.303,0.016ZM0.303,-0.083C0.332,-0.083 0.358,-0.09 0.382,-0.104C0.406,-0.118 0.425,-0.138 0.44,-0.164C0.455,-0.19 0.462,-0.22 0.462,-0.255C0.462,-0.29 0.455,-0.32 0.44,-0.346C0.425,-0.372 0.406,-0.392 0.382,-0.406C0.358,-0.42 0.332,-0.427 0.303,-0.427C0.274,-0.427 0.248,-0.42 0.224,-0.406C0.199,-0.392 0.18,-0.372 0.165,-0.346C0.15,-0.32 0.143,-0.29 0.143,-0.255C0.143,-0.22 0.15,-0.19 0.165,-0.164C0.18,-0.138 0.199,-0.118 0.224,-0.104C0.248,-0.09 0.274,-0.083 0.303,-0.083Z" style="fill:rgb(11,48,67);fill-rule:nonzero;"/>
            </g>
            <g transform="matrix(66.6667,0,0,66.6667,636.349,373.297)">
                <path d="M0.281,0.016C0.235,0.016 0.193,0.004 0.156,-0.019C0.119,-0.042 0.089,-0.074 0.068,-0.115C0.047,-0.156 0.036,-0.203 0.036,-0.255C0.036,-0.307 0.047,-0.354 0.068,-0.395C0.089,-0.436 0.119,-0.468 0.156,-0.491C0.193,-0.514 0.235,-0.526 0.281,-0.526C0.318,-0.526 0.351,-0.518 0.38,-0.501C0.409,-0.485 0.43,-0.465 0.445,-0.441L0.451,-0.441L0.445,-0.512L0.445,-0.716L0.552,-0.716L0.552,0L0.451,0L0.451,-0.068L0.445,-0.068C0.43,-0.045 0.409,-0.025 0.38,-0.009C0.351,0.008 0.318,0.016 0.281,0.016ZM0.297,-0.083C0.324,-0.083 0.349,-0.09 0.373,-0.105C0.396,-0.119 0.415,-0.139 0.43,-0.165C0.444,-0.191 0.451,-0.221 0.451,-0.255C0.451,-0.289 0.444,-0.319 0.43,-0.345C0.415,-0.371 0.396,-0.391 0.373,-0.406C0.349,-0.42 0.324,-0.427 0.297,-0.427C0.27,-0.427 0.245,-0.42 0.222,-0.406C0.198,-0.391 0.179,-0.371 0.165,-0.345C0.15,-0.319 0.143,-0.289 0.143,-0.255C0.143,-0.221 0.15,-0.191 0.165,-0.165C0.179,-0.139 0.198,-0.119 0.222,-0.105C0.245,-0.09 0.27,-0.083 0.297,-0.083Z" style="fill:rgb(11,48,67);fill-rule:nonzero;"/>
            </g>
            <g transform="matrix(66.6667,0,0,66.6667,677.082,373.297)">
                <path d="M0.296,0.016C0.247,0.016 0.202,0.004 0.163,-0.019C0.123,-0.042 0.092,-0.075 0.07,-0.116C0.047,-0.157 0.036,-0.203 0.036,-0.254C0.036,-0.303 0.047,-0.348 0.069,-0.39C0.09,-0.431 0.12,-0.464 0.159,-0.489C0.198,-0.514 0.241,-0.526 0.29,-0.526C0.341,-0.526 0.386,-0.515 0.423,-0.493C0.46,-0.47 0.489,-0.439 0.508,-0.4C0.528,-0.361 0.538,-0.316 0.538,-0.266C0.538,-0.253 0.537,-0.241 0.536,-0.232L0.142,-0.232C0.147,-0.183 0.164,-0.146 0.194,-0.119C0.224,-0.093 0.259,-0.08 0.299,-0.08C0.332,-0.08 0.36,-0.087 0.383,-0.102C0.406,-0.117 0.425,-0.137 0.439,-0.162L0.528,-0.119C0.505,-0.077 0.474,-0.044 0.435,-0.02C0.396,0.004 0.35,0.016 0.296,0.016ZM0.431,-0.313C0.43,-0.332 0.424,-0.35 0.413,-0.369C0.402,-0.388 0.387,-0.403 0.367,-0.416C0.346,-0.428 0.321,-0.434 0.291,-0.434C0.255,-0.434 0.225,-0.423 0.2,-0.401C0.174,-0.379 0.157,-0.35 0.148,-0.313L0.431,-0.313Z" style="fill:rgb(11,48,67);fill-rule:nonzero;"/>
            </g>
        </g>
    </g>
    <g transform="matrix(1.11923,0,0,1.07241,-60.7976,-91.5258)">
        <ellipse cx="68.987" cy="109.819" rx="134.021" ry="139.872" style="fill:rgb(89,221,123);"/>
    </g>
    <g transform="matrix(1,0,0,1,24.1832,94.2877)">
        <path d="M879.554,285.024C879.554,227.77 833.071,181.287 775.817,181.287C718.563,181.287 672.08,227.77 672.08,285.024L672.08,497.653C672.08,554.907 718.563,601.39 775.817,601.39C833.071,601.39 879.554,554.907 879.554,497.653L879.554,285.024Z" style="fill:rgb(249,135,211);"/>
    </g>
</svg>
